<svg width="22" height="38" viewBox="0 0 22 38" fill="none" xmlns="http://www.w3.org/2000/svg">
<path d="M11 1L21 19L11 15L1 19L11 1Z" fill="#757575"/>
<path d="M20.6708 18.1056L12.7889 2.34164C12.0518 0.867548 9.9482 0.867537 9.21115 2.34164L1.32918 18.1056C1.04765 18.6686 1.04765 19.3314 1.32918 19.8944L9.21115 35.6584C9.94819 37.1325 12.0518 37.1325 12.7889 35.6584L20.6708 19.8944C20.9523 19.3314 20.9523 18.6686 20.6708 18.1056Z" stroke="#757575" stroke-width="2"/>
<path d="M4.5 25L2.40747 20.4662C1.91838 19.4065 2.43682 18.1549 3.53198 17.7514L10.3086 15.2547C10.7549 15.0903 11.2451 15.0903 11.6914 15.2547L18.468 17.7514C19.5632 18.1549 20.0816 19.4065 19.5925 20.4662L17.5 25" stroke="#757575" stroke-width="0.9" stroke-linecap="round"/>
</svg>
